<?xml version="1.0" encoding="utf-8"?>
<!-- Generator: Adobe Illustrator 19.0.0, SVG Export Plug-In . SVG Version: 6.00 Build 0)  -->
<svg version="1.1" id="Layer_1" xmlns="http://www.w3.org/2000/svg" xmlns:xlink="http://www.w3.org/1999/xlink" x="0px" y="0px"
	 viewBox="-537.4 426.7 840.8 229.4" style="enable-background:new -537.4 426.7 840.8 229.4;" xml:space="preserve">
<style type="text/css">
	.st0{fill:#FFFFFF;}
</style>
<path class="st0" d="M-92,492.1l-0.2-0.2h-99.3l-25.1,33.1l99,130.8l0.2,0.2h50.7l-49.3-65.2h48.1l49.2,65l0.1,0.2h50.7L-92,492.1z
	 M-141.5,557.1l-23.9-31.6h48.1l23.9,31.6H-141.5z M154.9,426.9l-0.2-0.2h-543.6L-512.5,590l-24.9,32.9l25.1,33.1h346.9l-75.1-99.2
	l-49.6,65.6h-48.1l73.7-97.3l-25.3-33.5l-49.6,65.6h-49.4l-25.5,33.6h49.3l-23.9,31.6h-97.5l73.3-96.8h49.4l25.5-33.6h-49.4
	l23.9-31.6h98.3l24.9,33l24.9-33h345.1l122.7,162.1h-48.1l-98.6-130.3l-0.1-0.2H6.1L-19,525.1l99,130.8l0.2,0.2h50.7l-49.4-65.2
	h48.1l49.2,65l0.2,0.2h99.3l25.1-33.1L154.9,426.9z M56,557.1l-23.9-31.6h48.1l23.9,31.6H56z"/>
</svg>
